<svg id="Layer_2" data-name="Layer 2" xmlns="http://www.w3.org/2000/svg" viewBox="0 0 331.5 81.9"><path id="full" d="M387.55,488.21H328.7V561.7h59.38v-17H348.49V532.15h35.24V516.81H348.45V504.54h39.1ZM242,488.07l29.69,74h18.91l29.68-74H298.44L282,533.53l-1.44.1q-8.15-22.77-16.28-45.56Zm203.26,50.07c9-3.16,14.51-9,16.43-17.91,3.84-17.82-7.48-31.61-26.56-32.19-10.39-.31-20.81-.15-31.21-.17a26.71,26.71,0,0,0-3.29.42v33l20.1-2.3V504.84c1.25-.16,1.86-.28,2.47-.3,2.95-.08,5.91-.27,8.86-.16,5,.17,9.7,4.19,10.34,8.57.71,4.93-2,9.16-7.14,11.21-1.13.45-2.29.81-3.79,1.33ZM163.76,519V504.46c4.61,0,8.63-.27,12.6.07a10.25,10.25,0,0,1,9.22,8.53c.63,5.14-1.6,8.93-6.58,11-1.2.51-2.44.92-4,1.5,4.72,4.42,9.09,8.49,13.23,12.36,8.51-2.13,13.32-7.25,15.86-14.59,6.13-17.68-3.74-33.43-22.62-34.93-11.89-.95-23.91-.37-35.88-.45-.41,0-.82.35-1.51.67v32.52Zm68.91,42.75V488.3H213.81v73.43Zm-23.54,7.82c-9.21-10.6-18.13-21.26-27.52-31.49a52.2,52.2,0,0,0-12.28-9.8c-10.68-6.15-26.28-3.2-34.14,6.06a11.35,11.35,0,0,0,2.21.69,47.83,47.83,0,0,1,28.66,13.19c3.86,3.6,7.65,7.29,11.57,10.81A39.93,39.93,0,0,0,209.13,569.55Zm257.55,0c-4.66-4.79-9-9-13-13.46s-7.71-9.74-11.8-14.39c-5.66-6.45-11.8-12.39-20.19-15.32-10.12-3.53-24,.17-29.62,8a13.29,13.29,0,0,0,2.24.62,48.4,48.4,0,0,1,28.3,13c4,3.66,7.86,7.51,11.88,11.17C443.48,567.37,454.18,570.46,466.68,569.53Zm-65.89-27.68v19.84h20.89c-1.25-4.2-1.31-8.55-3.52-11A27.38,27.38,0,0,0,400.79,541.85ZM163.08,561.66c1.52-10.74-7.8-20-18.93-19.24v19.24Z" transform="translate(-135.19 -487.84)"/></svg>